# xmcd
#
# Track frame offsets:
#	150
#	12345
#	25082
#	32820
#	45410
#	58252
#	72375
#	98995
#	109210
#	124897
#
# Disc length: 1928
#
# Revision: 3
# Processed by: cddbd v1.5.1PL0 Copyright (c) Steve Scherf et al.
# Submitted via: tcd 2.0b
# Normalized: r1:TSWAP
#
DISCID=8807860a
DTITLE=Various Artist - Raw Blues - Volume 3
DYEAR=1900
DGENRE=
TTITLE0=John Lee Hooker - I'm In The Mood
TTITLE1=Muddy Waters - Baby Please Don't Go
TTITLE2=Big Joe Williams - Terraplane Blues
TTITLE3=Lightnin' Hopkins - Life I Used To Live
TTITLE4=Jimmy Reed - Shame, Shame, Shame
TTITLE5=Canned Heat - Rolling and Tumbling
TTITLE6=Mike Bloomfield - Knockin' Myself Out
TTITLE7=Memphis Slim - Little Lonely Girl
TTITLE8=Rufus Thomas - Come Here Mama
TTITLE9=Little Walter and Otis Rush - Goin' Down Slow
EXTD=
EXTT0=
EXTT1=
EXTT2=
EXTT3=
EXTT4=
EXTT5=
EXTT6=
EXTT7=
EXTT8=
EXTT9=
PLAYORDER=
